<svg xmlns="http://www.w3.org/2000/svg" xmlns:xlink="http://www.w3.org/1999/xlink" width="500" zoomAndPan="magnify" viewBox="0 0 375 374.999991" height="500" preserveAspectRatio="xMidYMid meet" version="1.0"><defs><filter x="0%" y="0%" width="100%" height="100%" id="e8837fa06d"><feColorMatrix values="0 0 0 0 1 0 0 0 0 1 0 0 0 0 1 0 0 0 1 0" color-interpolation-filters="sRGB"/></filter><clipPath id="c65d94100e"><path d="M 26 23.246094 L 351 23.246094 L 351 138 L 26 138 Z M 26 23.246094 " clip-rule="nonzero"/></clipPath><mask id="fbf97055c7"><g filter="url(#e8837fa06d)"><rect x="-37.5" width="450" fill="#000000" y="-37.499999" height="449.999989" fill-opacity="0.78"/></g></mask><clipPath id="952b17eb8a"><path d="M 0.28125 0.121094 L 36 0.121094 L 36 24 L 0.28125 24 Z M 0.28125 0.121094 " clip-rule="nonzero"/></clipPath><clipPath id="84bbe4e678"><path d="M 238 0.121094 L 273.640625 0.121094 L 273.640625 24 L 238 24 Z M 238 0.121094 " clip-rule="nonzero"/></clipPath><clipPath id="b9de378b22"><rect x="0" width="274" y="0" height="25"/></clipPath></defs><path fill="#5fd35f" d="M 371.445312 264.980469 C 368.828125 276.324219 363.15625 286.007812 355.566406 294.121094 C 310.460938 342.28125 193.894531 340.886719 188.3125 340.800781 L 188.136719 340.625 L 188.136719 340.800781 C 182.554688 340.886719 66.339844 342.28125 21.144531 294.382812 C 13.378906 286.09375 7.621094 276.410156 5.003906 264.980469 C 0.03125 139.515625 69.917969 85.25 188.226562 84.988281 L 188.226562 85.160156 L 188.398438 84.988281 C 306.535156 85.25 376.507812 139.515625 371.445312 264.980469 Z M 371.445312 264.980469 " fill-opacity="1" fill-rule="nonzero"/><path fill="#fff6d5" d="M 356.265625 281.035156 C 356.265625 285.484375 356.003906 289.847656 355.480469 294.121094 C 310.371094 342.28125 193.894531 340.886719 188.3125 340.800781 C 188.226562 340.800781 188.136719 340.800781 188.136719 340.800781 C 182.554688 340.886719 66.339844 342.28125 21.058594 294.382812 C 20.535156 290.019531 20.273438 285.570312 20.273438 281.035156 C 20.273438 204.429688 95.394531 142.398438 188.050781 142.308594 L 188.226562 142.308594 C 281.058594 142.222656 356.265625 204.429688 356.265625 281.035156 Z M 356.265625 281.035156 " fill-opacity="1" fill-rule="nonzero"/><g clip-path="url(#c65d94100e)"><path fill="#5fd35f" d="M 140.675781 80.449219 C 140.675781 112.035156 115.023438 137.683594 83.441406 137.683594 C 51.855469 137.683594 26.207031 112.035156 26.207031 80.449219 C 26.207031 48.867188 51.855469 23.214844 83.441406 23.214844 C 115.023438 23.214844 140.675781 48.867188 140.675781 80.449219 Z M 235.6875 80.449219 C 235.6875 112.035156 261.339844 137.683594 292.921875 137.683594 C 324.507812 137.683594 350.15625 112.035156 350.15625 80.449219 C 350.15625 48.867188 324.507812 23.214844 292.921875 23.214844 C 261.339844 23.214844 235.6875 48.867188 235.6875 80.449219 Z M 235.6875 80.449219 " fill-opacity="1" fill-rule="nonzero"/></g><path fill="#3d242f" d="M 99.058594 80.015625 C 99.058594 92.492188 92.078125 102.523438 83.441406 102.523438 C 74.800781 102.523438 67.824219 92.402344 67.824219 80.015625 C 67.824219 67.539062 74.800781 57.503906 83.441406 57.503906 C 92.078125 57.503906 99.058594 67.625 99.058594 80.015625 Z M 99.058594 80.015625 " fill-opacity="1" fill-rule="nonzero"/><path fill="#3d242f" d="M 277.304688 80.015625 C 277.304688 92.492188 284.285156 102.523438 292.921875 102.523438 C 301.558594 102.523438 308.539062 92.402344 308.539062 80.015625 C 308.539062 67.539062 301.558594 57.503906 292.921875 57.503906 C 284.285156 57.503906 277.304688 67.625 277.304688 80.015625 Z M 277.304688 80.015625 " fill-opacity="1" fill-rule="nonzero"/><path fill="#3d242f" d="M 174.527344 126.515625 C 174.527344 126.515625 165.191406 105.925781 151.929688 110.289062 C 138.492188 114.566406 174.527344 126.515625 174.527344 126.515625 Z M 174.527344 126.515625 " fill-opacity="1" fill-rule="nonzero"/><path fill="#3d242f" d="M 198.347656 126.515625 C 198.347656 126.515625 207.679688 105.925781 220.941406 110.289062 C 234.292969 114.566406 198.347656 126.515625 198.347656 126.515625 Z M 198.347656 126.515625 " fill-opacity="1" fill-rule="nonzero"/><g mask="url(#fbf97055c7)"><g transform="matrix(1, 0, 0, 1, 53, 105)"><g clip-path="url(#b9de378b22)"><g clip-path="url(#952b17eb8a)"><path fill="#ff4b8c" d="M 35.761719 12.269531 C 35.761719 18.726562 27.910156 23.875 18.226562 23.875 C 8.539062 23.875 0.6875 18.636719 0.6875 12.269531 C 0.6875 5.8125 8.539062 0.664062 18.226562 0.664062 C 27.910156 0.664062 35.761719 5.8125 35.761719 12.269531 Z M 35.761719 12.269531 " fill-opacity="1" fill-rule="nonzero"/></g><g clip-path="url(#84bbe4e678)"><path fill="#ff4b8c" d="M 238.003906 12.269531 C 238.003906 18.726562 245.855469 23.875 255.539062 23.875 C 265.226562 23.875 273.078125 18.636719 273.078125 12.269531 C 273.078125 5.8125 265.226562 0.664062 255.539062 0.664062 C 245.855469 0.664062 238.003906 5.8125 238.003906 12.269531 Z M 238.003906 12.269531 " fill-opacity="1" fill-rule="nonzero"/></g></g></g></g><path fill="#3d242f" d="M 186.480469 156.96875 C 158.300781 156.96875 134.480469 147.980469 121.828125 132.449219 C 121.042969 131.492188 121.132812 130.007812 122.179688 129.136719 C 123.226562 128.351562 124.621094 128.4375 125.492188 129.484375 C 138.230469 145.101562 163.445312 153.476562 192.9375 152.082031 C 219.285156 150.773438 242.492188 141.699219 250.605469 129.398438 C 251.304688 128.351562 252.789062 128 253.835938 128.699219 C 254.882812 129.398438 255.230469 130.878906 254.535156 131.925781 C 245.460938 145.625 221.378906 155.308594 193.109375 156.707031 C 190.929688 156.878906 188.660156 156.96875 186.480469 156.96875 Z M 186.480469 156.96875 " fill-opacity="1" fill-rule="nonzero"/></svg>